<?xml version="1.0" encoding="utf-8"?>
<!-- Generator: Adobe Illustrator 25.2.1, SVG Export Plug-In . SVG Version: 6.00 Build 0)  -->
<svg version="1.1" id="Layer_1" xmlns="http://www.w3.org/2000/svg" xmlns:xlink="http://www.w3.org/1999/xlink" x="0px" y="0px"
	 viewBox="0 0 219 43" style="enable-background:new 0 0 219 43;" xml:space="preserve">
<style type="text/css">
	.st0{fill:#121318;}
	.st1{fill:#7AC143;}
	.st2{fill:#FFFFFF;}
	.st3{fill:#008752;}
</style>
<g>
	<g>
		<path class="st0" d="M218.8,30.3c-0.6,0.2-1.3,0.4-2,0.3c-1.3,0-1.9-0.7-1.9-2.1v-9.3h4v-3.5h-4V8.9h-1.5c-0.8,0-1.6,0.3-2.2,0.9
			c-0.6,0.6-0.9,1.3-0.9,2.1v0.1v3.6h-2.4v3.5h2.4v9.7c0,3.6,2,5.5,5.7,5.5c1,0,2-0.1,2.9-0.5l0.1,0v-3.7L218.8,30.3z"/>
		<path class="st0" d="M199.5,22.8c-2.8-0.5-3.6-1-3.6-2.1s1-2,2.7-2c1.8,0,2.7,0.7,3.1,2.3l0,0.1h4.3v-0.2
			c-0.4-3.7-2.9-5.6-7.4-5.6c-3.4,0-7.1,1.8-7.1,5.6c0,3.4,1.8,4.9,6.8,5.7c2.8,0.5,3.8,1,3.8,2.3c0,1.5-1,2.1-3.1,2.1
			s-3.2-0.8-3.5-2.7v-0.2h-4.4v0.2c0.2,3.9,3,6.2,7.9,6.2c4.8,0,7.5-2.2,7.5-6C206.5,24.6,204,23.5,199.5,22.8z"/>
		<path class="st0" d="M180.4,15.3c-5.5,0-9.3,3.9-9.3,9.5v0.3c0,5.6,3.8,9.4,9.5,9.4c4.9,0,8-2.2,8.6-6l0-0.2h-4.5l0,0.2
			c-0.3,1.7-1.7,2.6-4,2.6c-2.9,0-4.7-1.8-4.9-5h13.4v-1.4C189.2,17.7,184.6,15.3,180.4,15.3z M180.4,18.7c2.6,0,4,1.4,4.2,4.1h-8.7
			C176.4,20.2,178,18.7,180.4,18.7z"/>
		<path class="st0" d="M162.6,28.2l-3.4-12.6h-3.8l-3.7,12.6l-3.5-12.6h-4.9l5.7,18.3l0,0.1h4.6l3.6-11.7l3.3,11.7h4.6l5.8-18.2
			l0.1-0.2h-4.5L162.6,28.2z"/>
		<path class="st0" d="M135.6,15.3c-2.5,0-4.6,1-5.7,2.7V8.9h-1.5c-0.8,0-1.6,0.3-2.2,0.9c-0.6,0.6-0.9,1.3-0.9,2.1v22.2h4.6V23.3
			c0-3,2.1-4.1,4.1-4.1c2.4,0,3.5,1.1,3.5,3.8v11.2h4.6V22.5C142.1,17.8,139.8,15.3,135.6,15.3z"/>
		<path class="st0" d="M122.3,30.3c-0.6,0.2-1.3,0.4-2,0.3c-1.3,0-1.9-0.7-1.9-2.1v-9.3h4v-3.5h-4V8.9h-1.5c-0.8,0-1.6,0.3-2.2,0.9
			c-0.6,0.6-0.9,1.3-0.9,2.1v0.1v3.6h-2.4v3.5h2.5v9.7c0,3.6,2,5.5,5.7,5.5c1,0,2-0.1,2.9-0.5l0.1,0v-3.7L122.3,30.3z"/>
		<path class="st0" d="M103.5,18.5v-2.9h-4.6v18.5h4.6v-9.6c0-3.4,1.7-4.8,5.8-4.9h0.2v-4.3h-0.2C106.6,15.4,104.8,16.4,103.5,18.5z
			"/>
		<path class="st0" d="M86.8,15.3c-5.7,0-9.6,3.9-9.6,9.5v0.3c0,5.5,3.9,9.4,9.6,9.4c5.6,0,9.6-3.9,9.6-9.5v-0.3
			C96.3,19.1,92.4,15.3,86.8,15.3z M81.9,24.7c0-3.6,1.8-5.8,4.9-5.8c3.1,0,4.9,2.2,4.9,5.8V25c0,3.6-1.8,5.8-4.9,5.8
			s-4.9-2.2-4.9-5.8V24.7z"/>
		<path class="st0" d="M69.7,26.4L59.4,8.9h-6.1l0,25.2h4.7l0-18.5l11,18.5l5.4,0V8.9h-4.8L69.7,26.4z"/>
		<path class="st1" d="M38.9,0H2.7C2,0,1.3,0.3,0.8,0.8C0.3,1.3,0,2,0,2.7v35.6c0.8-9.9,4-20.5,11-27.4C18.1,4,28.8,0.7,38.9,0z"/>
		<path class="st2" d="M0,38.3c0.8-9.9,5.4-19.1,12.4-26C19.5,5.4,28.8,0.7,38.9,0C28.8,0.7,18.1,3.9,11,10.9
			C4,17.9,0.8,28.4,0,38.3z"/>
		<path class="st3" d="M40.9,0h-2C28.8,0.7,19.5,5.3,12.4,12.3c-7,6.9-11.7,16.1-12.4,26v2c0,0.4,0.1,0.7,0.2,1
			c0.1,0.3,0.3,0.6,0.6,0.9c0.3,0.2,0.6,0.4,0.9,0.6C2,42.9,2.4,43,2.7,43h38.1c0.4,0,0.7-0.1,1-0.2c0.3-0.1,0.6-0.3,0.9-0.6
			c0.3-0.2,0.5-0.5,0.6-0.9c0.1-0.3,0.2-0.7,0.2-1V2.7c0-0.7-0.3-1.4-0.8-1.9C42.3,0.3,41.6,0,40.9,0L40.9,0z"/>
		<path class="st2" d="M9.7,8.9h6.6l10.5,13.3V8.9h7v25.2h-6.2L16.7,20.3v13.8h-7L9.7,8.9z"/>
	</g>
</g>
</svg>
